<svg xmlns="http://www.w3.org/2000/svg" xmlns:xlink="http://www.w3.org/1999/xlink" width="500" zoomAndPan="magnify" viewBox="0 0 375 374.999991" height="500" preserveAspectRatio="xMidYMid meet" version="1.0"><defs><g/><clipPath id="c2134d6df9"><path d="M 54.226562 54.226562 L 318.976562 54.226562 L 318.976562 318.976562 L 54.226562 318.976562 Z M 54.226562 54.226562 " clip-rule="nonzero"/></clipPath><clipPath id="3781b3a264"><path d="M 217 84 L 265 84 L 265 139 L 217 139 Z M 217 84 " clip-rule="nonzero"/></clipPath><clipPath id="2d08e33724"><path d="M 172.1875 208.582031 L 123.355469 125.0625 L 226.945312 64.492188 L 275.78125 148.011719 Z M 172.1875 208.582031 " clip-rule="nonzero"/></clipPath><clipPath id="a1a92d82be"><path d="M 172.1875 208.582031 L 123.355469 125.0625 L 226.945312 64.492188 L 275.78125 148.011719 Z M 172.1875 208.582031 " clip-rule="nonzero"/></clipPath><clipPath id="621f841ce2"><path d="M 172.1875 208.582031 L 123.355469 125.0625 L 226.945312 64.492188 L 275.78125 148.011719 Z M 172.1875 208.582031 " clip-rule="nonzero"/></clipPath><clipPath id="5803a0ae9f"><path d="M 190 80 L 266 80 L 266 156 L 190 156 Z M 190 80 " clip-rule="nonzero"/></clipPath><clipPath id="7c23159512"><path d="M 172.1875 208.582031 L 123.355469 125.0625 L 226.945312 64.492188 L 275.78125 148.011719 Z M 172.1875 208.582031 " clip-rule="nonzero"/></clipPath><clipPath id="f6a7a83f29"><path d="M 172.1875 208.582031 L 123.355469 125.0625 L 226.945312 64.492188 L 275.78125 148.011719 Z M 172.1875 208.582031 " clip-rule="nonzero"/></clipPath><clipPath id="6b1998b675"><path d="M 172.1875 208.582031 L 123.355469 125.0625 L 226.945312 64.492188 L 275.78125 148.011719 Z M 172.1875 208.582031 " clip-rule="nonzero"/></clipPath><clipPath id="7c9595783a"><path d="M 159 75 L 266 75 L 266 168 L 159 168 Z M 159 75 " clip-rule="nonzero"/></clipPath><clipPath id="f2a775f7e0"><path d="M 172.1875 208.582031 L 123.355469 125.0625 L 226.945312 64.492188 L 275.78125 148.011719 Z M 172.1875 208.582031 " clip-rule="nonzero"/></clipPath><clipPath id="4f5f429182"><path d="M 172.1875 208.582031 L 123.355469 125.0625 L 226.945312 64.492188 L 275.78125 148.011719 Z M 172.1875 208.582031 " clip-rule="nonzero"/></clipPath><clipPath id="518e690c7c"><path d="M 172.1875 208.582031 L 123.355469 125.0625 L 226.945312 64.492188 L 275.78125 148.011719 Z M 172.1875 208.582031 " clip-rule="nonzero"/></clipPath><clipPath id="d7d024e2ee"><path d="M 144 138 L 177 138 L 177 161 L 144 161 Z M 144 138 " clip-rule="nonzero"/></clipPath><clipPath id="a0eadf4e33"><path d="M 172.1875 208.582031 L 123.355469 125.0625 L 226.945312 64.492188 L 275.78125 148.011719 Z M 172.1875 208.582031 " clip-rule="nonzero"/></clipPath><clipPath id="e6bbe8b708"><path d="M 172.1875 208.582031 L 123.355469 125.0625 L 226.945312 64.492188 L 275.78125 148.011719 Z M 172.1875 208.582031 " clip-rule="nonzero"/></clipPath><clipPath id="2352a844b2"><path d="M 172.1875 208.582031 L 123.355469 125.0625 L 226.945312 64.492188 L 275.78125 148.011719 Z M 172.1875 208.582031 " clip-rule="nonzero"/></clipPath><clipPath id="2fcadd5bf5"><path d="M 205 55 L 299 55 L 299 149 L 205 149 Z M 205 55 " clip-rule="nonzero"/></clipPath><clipPath id="ca3b8e96cf"><path d="M 179.953125 101.621094 L 252.078125 29.496094 L 324.203125 101.621094 L 252.078125 173.746094 Z M 179.953125 101.621094 " clip-rule="nonzero"/></clipPath><clipPath id="713b6c5ce8"><path d="M 179.953125 101.621094 L 252.078125 29.496094 L 324.203125 101.621094 L 252.078125 173.746094 Z M 179.953125 101.621094 " clip-rule="nonzero"/></clipPath><clipPath id="4f28a29575"><path d="M 179.953125 101.621094 L 252.078125 29.496094 L 324.203125 101.621094 L 252.078125 173.746094 Z M 179.953125 101.621094 " clip-rule="nonzero"/></clipPath><clipPath id="22b366e18b"><path d="M 273 79 L 296 79 L 296 138 L 273 138 Z M 273 79 " clip-rule="nonzero"/></clipPath><clipPath id="327d7d2f16"><path d="M 179.953125 101.621094 L 252.078125 29.496094 L 324.203125 101.621094 L 252.078125 173.746094 Z M 179.953125 101.621094 " clip-rule="nonzero"/></clipPath><clipPath id="4a4a3a10df"><path d="M 179.953125 101.621094 L 252.078125 29.496094 L 324.203125 101.621094 L 252.078125 173.746094 Z M 179.953125 101.621094 " clip-rule="nonzero"/></clipPath><clipPath id="a6ac3ae98f"><path d="M 179.953125 101.621094 L 252.078125 29.496094 L 324.203125 101.621094 L 252.078125 173.746094 Z M 179.953125 101.621094 " clip-rule="nonzero"/></clipPath><clipPath id="e51ad106cf"><path d="M 206 55 L 261 55 L 261 119 L 206 119 Z M 206 55 " clip-rule="nonzero"/></clipPath><clipPath id="0bc14ffda9"><path d="M 179.953125 101.621094 L 252.078125 29.496094 L 324.203125 101.621094 L 252.078125 173.746094 Z M 179.953125 101.621094 " clip-rule="nonzero"/></clipPath><clipPath id="c69ce38aba"><path d="M 179.953125 101.621094 L 252.078125 29.496094 L 324.203125 101.621094 L 252.078125 173.746094 Z M 179.953125 101.621094 " clip-rule="nonzero"/></clipPath><clipPath id="640bc1e453"><path d="M 179.953125 101.621094 L 252.078125 29.496094 L 324.203125 101.621094 L 252.078125 173.746094 Z M 179.953125 101.621094 " clip-rule="nonzero"/></clipPath></defs><g clip-path="url(#c2134d6df9)"><path fill="#2169ac" d="M 186.695312 54.226562 C 113.652344 54.226562 54.226562 113.65625 54.226562 186.699219 C 54.226562 259.742188 113.652344 319.164062 186.695312 319.164062 C 259.738281 319.164062 319.164062 259.742188 319.164062 186.699219 C 319.164062 113.65625 259.738281 54.226562 186.695312 54.226562 Z M 186.695312 315.714844 C 115.558594 315.714844 57.683594 257.835938 57.683594 186.699219 C 57.683594 115.558594 115.558594 57.683594 186.695312 57.683594 C 257.835938 57.683594 315.714844 115.558594 315.714844 186.699219 C 315.714844 257.835938 257.835938 315.714844 186.695312 315.714844 Z M 186.695312 315.714844 " fill-opacity="1" fill-rule="nonzero"/></g><path fill="#2169ac" d="M 186.695312 64.570312 C 119.355469 64.570312 64.570312 119.359375 64.570312 186.699219 C 64.570312 254.039062 119.355469 308.828125 186.695312 308.828125 C 254.039062 308.828125 308.824219 254.039062 308.824219 186.699219 C 308.824219 119.359375 254.039062 64.570312 186.695312 64.570312 Z M 186.695312 64.570312 " fill-opacity="1" fill-rule="nonzero"/><g clip-path="url(#3781b3a264)"><g clip-path="url(#2d08e33724)"><g clip-path="url(#a1a92d82be)"><g clip-path="url(#621f841ce2)"><path fill="#ecee23" d="M 233.59375 84.160156 C 235.855469 85.320312 237.882812 86.507812 240 88.105469 C 226.828125 89.558594 220.464844 102.191406 221.152344 107.429688 C 221.492188 106.941406 227.402344 98.613281 242.539062 102.234375 C 227.007812 113.921875 232.871094 120.386719 225.703125 127.699219 C 235.074219 129.238281 238.109375 121.339844 244.734375 121.113281 C 256.597656 120.945312 256.101562 130.085938 244.816406 133.707031 C 251.664062 136.410156 258.25 134.867188 263.496094 130.074219 C 263.863281 130.625 264.175781 131.195312 264.445312 131.765625 L 264.457031 131.78125 C 263.011719 135.5 258.933594 137.78125 254.671875 138.566406 C 251.753906 139.230469 248.277344 138.304688 245.59375 137.269531 C 243.386719 136.519531 240.851562 134.566406 238.40625 134.476562 C 238.484375 134.324219 238.5625 134.175781 238.664062 134.03125 C 240.039062 131.332031 246.519531 129.960938 246.707031 126.726562 C 247.167969 121.605469 239.804688 128.867188 238.765625 129.472656 C 235.460938 131.21875 231.484375 131.816406 227.921875 130.777344 C 225.5625 130.15625 220.542969 126.800781 217.6875 127.367188 C 219 125.019531 219.972656 122.804688 221.6875 120.71875 C 223.828125 118.089844 225.273438 115.183594 225.300781 111.816406 C 222.839844 112.734375 220.453125 112.527344 217.808594 112.699219 C 219.378906 107.132812 218.289062 100.816406 220.015625 95.308594 C 222.390625 88.234375 227.285156 84.894531 233.59375 84.160156 " fill-opacity="1" fill-rule="nonzero"/></g></g></g></g><g clip-path="url(#5803a0ae9f)"><g clip-path="url(#7c23159512)"><g clip-path="url(#f6a7a83f29)"><g clip-path="url(#6b1998b675)"><path fill="#fbd118" d="M 233.503906 82.546875 C 232.964844 82.800781 232.484375 83.082031 232.039062 83.386719 C 232.5625 83.640625 233.085938 83.898438 233.59375 84.160156 C 227.285156 84.894531 222.390625 88.234375 220.015625 95.308594 C 218.289062 100.816406 219.378906 107.132812 217.808594 112.699219 C 220.453125 112.527344 222.839844 112.734375 225.300781 111.816406 C 225.273438 115.183594 223.828125 118.089844 221.6875 120.71875 C 219.972656 122.804688 219 125.019531 217.6875 127.367188 C 220.542969 126.800781 225.5625 130.15625 227.921875 130.777344 C 231.484375 131.816406 235.460938 131.21875 238.765625 129.472656 C 239.804688 128.867188 247.167969 121.605469 246.707031 126.726562 C 246.519531 129.960938 240.039062 131.332031 238.664062 134.03125 C 238.5625 134.175781 238.484375 134.324219 238.402344 134.476562 C 240.851562 134.566406 243.386719 136.519531 245.59375 137.269531 C 248.277344 138.304688 251.753906 139.230469 254.671875 138.566406 C 258.933594 137.78125 263.011719 135.5 264.457031 131.78125 C 264.875 132.640625 265.167969 133.53125 265.378906 134.425781 C 263.632812 139.449219 260.464844 144.132812 257.058594 147.414062 C 254.785156 149.433594 252.003906 151.222656 249.359375 152.605469 C 246.613281 153.855469 244.046875 153.625 241.21875 154.40625 C 244.011719 152.960938 246.664062 149.492188 246.78125 146.132812 C 246.925781 137.199219 232.390625 137.535156 227.015625 140.511719 C 220.347656 144.222656 216.222656 154.675781 210.015625 155.304688 C 213.148438 153.828125 212.457031 146.421875 214.144531 143.683594 C 215.695312 141.320312 216.886719 139.226562 218.570312 137.453125 C 214.472656 135.351562 209.769531 134.390625 205.226562 135.550781 C 198.8125 137.03125 195.886719 146.257812 190.402344 145.777344 C 194.097656 142.910156 193.699219 136.894531 196.695312 133.414062 C 199.972656 129.730469 205.054688 127.070312 210.042969 126.671875 C 205.945312 120.550781 197.753906 115.761719 190.261719 116.183594 C 193.320312 109.710938 202.9375 112.0625 208.332031 108.554688 C 214 104.90625 218.679688 95.402344 211.375 90.636719 C 208.933594 89.125 206 89.445312 203.484375 89.875 C 211.796875 80.539062 222.179688 79.007812 233.503906 82.546875 " fill-opacity="1" fill-rule="nonzero"/></g></g></g></g><g clip-path="url(#7c9595783a)"><g clip-path="url(#f2a775f7e0)"><g clip-path="url(#4f5f429182)"><g clip-path="url(#518e690c7c)"><path fill="#f9a81b" d="M 209.773438 76.867188 C 214.796875 74.890625 221.273438 74.582031 227.792969 77.015625 C 232.097656 78.789062 233.8125 79.871094 236.789062 81.335938 C 235.59375 81.636719 234.472656 82.066406 233.503906 82.546875 C 222.179688 79.007812 211.796875 80.539062 203.484375 89.875 C 206 89.445312 208.933594 89.125 211.375 90.636719 C 218.679688 95.402344 214 104.90625 208.332031 108.554688 C 202.9375 112.0625 193.320312 109.710938 190.261719 116.183594 C 197.753906 115.761719 205.945312 120.550781 210.042969 126.671875 C 205.054688 127.070312 199.972656 129.730469 196.695312 133.414062 C 193.699219 136.894531 194.09375 142.910156 190.402344 145.777344 C 195.886719 146.257812 198.8125 137.03125 205.226562 135.550781 C 209.769531 134.390625 214.472656 135.351562 218.570312 137.453125 C 216.886719 139.226562 215.695312 141.320312 214.144531 143.683594 C 212.457031 146.421875 213.144531 153.828125 210.015625 155.304688 C 216.222656 154.675781 220.347656 144.222656 227.015625 140.511719 C 232.390625 137.535156 246.925781 137.199219 246.78125 146.132812 C 246.664062 149.492188 244.011719 152.960938 241.21875 154.40625 C 244.046875 153.625 246.613281 153.855469 249.359375 152.605469 C 252.003906 151.222656 254.785156 149.433594 257.058594 147.414062 C 260.464844 144.132812 263.632812 139.449219 265.378906 134.425781 C 268.121094 146.445312 253.046875 161.296875 223.1875 161.179688 C 221.726562 155.871094 249.765625 151.203125 240.628906 143.441406 C 220.628906 138.476562 213.335938 172.9375 194.246094 166.398438 C 206.507812 160.082031 201.699219 149.191406 211.664062 142.679688 C 208.511719 143.125 204.40625 143.753906 198.339844 149.386719 C 194.714844 152.753906 192.03125 157.28125 188.222656 160.550781 C 182.542969 166.597656 168.574219 169.640625 159.777344 163.164062 C 171.757812 160.53125 177.578125 154.796875 182.863281 143.378906 C 185.152344 138.394531 186.410156 132.972656 191.222656 129.640625 C 194.074219 127.972656 196.613281 125.300781 200.546875 125.519531 C 193.421875 124.542969 194.21875 122.203125 181.398438 125.46875 C 175.835938 126.910156 170.59375 131.289062 167.757812 137.109375 C 167.910156 130.253906 170.082031 121.945312 174.144531 116.441406 C 181.339844 106.511719 188.59375 105.144531 200.164062 103.585938 C 206.335938 102.578125 215.796875 96.527344 204.257812 95.464844 C 198.40625 95.242188 196.453125 100.796875 186.835938 96.800781 C 194.972656 92.042969 197.519531 81.703125 209.773438 76.867188 " fill-opacity="1" fill-rule="nonzero"/></g></g></g></g><g clip-path="url(#d7d024e2ee)"><g clip-path="url(#a0eadf4e33)"><g clip-path="url(#e6bbe8b708)"><g clip-path="url(#2352a844b2)"><path fill="#f9a81b" d="M 176.585938 138.15625 C 176.210938 144.203125 172.058594 152.902344 164.242188 156.035156 C 159.824219 157.699219 150.03125 153.933594 144.226562 160.761719 C 145.542969 143.414062 169.277344 145.96875 176.585938 138.15625 " fill-opacity="1" fill-rule="nonzero"/></g></g></g></g><g clip-path="url(#2fcadd5bf5)"><g clip-path="url(#ca3b8e96cf)"><g clip-path="url(#713b6c5ce8)"><g clip-path="url(#4f28a29575)"><path fill="#a3d727" d="M 298.546875 101.621094 C 298.546875 127.285156 277.742188 148.085938 252.078125 148.089844 C 226.414062 148.085938 205.609375 127.285156 205.609375 101.621094 C 205.605469 75.957031 226.414062 55.152344 252.078125 55.152344 C 277.742188 55.152344 298.542969 75.953125 298.546875 101.621094 " fill-opacity="1" fill-rule="nonzero"/></g></g></g></g><g clip-path="url(#22b366e18b)"><g clip-path="url(#327d7d2f16)"><g clip-path="url(#4a4a3a10df)"><g clip-path="url(#a6ac3ae98f)"><path fill="#ffffff" d="M 291.949219 79.597656 C 287.761719 81.234375 280.722656 84.929688 276.933594 92.179688 C 271.902344 101.792969 272.414062 112.347656 278.449219 123.550781 C 280.992188 128.265625 281.570312 132.832031 281.359375 136.601562 C 281.34375 136.890625 281.226562 137.585938 281.203125 137.859375 C 281.417969 137.679688 281.820312 137.351562 282.035156 137.171875 C 282.980469 136.367188 283.902344 135.519531 284.796875 134.625 C 285.761719 133.65625 286.675781 132.660156 287.539062 131.628906 C 287.710938 131.425781 287.878906 131.222656 288.046875 131.015625 C 288 130.757812 287.859375 130.230469 287.800781 129.96875 C 287.367188 127.988281 286.640625 125.917969 285.507812 123.8125 C 279.9375 113.484375 279.457031 103.761719 284.082031 94.921875 C 286.65625 90 290.882812 86.863281 294.464844 84.953125 C 294.648438 84.859375 295.136719 84.648438 295.3125 84.558594 C 295.238281 84.371094 294.871094 83.484375 294.792969 83.296875 C 294.550781 82.804688 294.074219 81.464844 293.0625 79.703125 L 292.816406 79.246094 C 292.65625 79.308594 292.121094 79.527344 291.949219 79.597656 " fill-opacity="1" fill-rule="nonzero"/></g></g></g></g><g clip-path="url(#e51ad106cf)"><g clip-path="url(#0bc14ffda9)"><g clip-path="url(#c69ce38aba)"><g clip-path="url(#640bc1e453)"><path fill="#ffffff" d="M 256.332031 87.78125 C 260.09375 80.632812 260.105469 74.105469 260.105469 74.0625 C 260.65625 65.542969 252.277344 58.175781 249.667969 56.09375 C 249.277344 55.785156 249.019531 55.59375 248.933594 55.53125 L 248.914062 55.515625 L 248.585938 55.28125 C 248.585938 55.28125 246.597656 55.421875 245.136719 55.664062 C 243.207031 55.972656 240.839844 56.519531 240.839844 56.519531 L 241.808594 57.160156 L 241.832031 57.175781 C 250.027344 62.851562 253.378906 67.945312 253.40625 74.757812 C 253.464844 89.777344 236.75 96.972656 227.902344 98.679688 C 216.652344 100.847656 210.300781 105.59375 207.011719 109.058594 C 206.828125 109.25 206.484375 109.601562 206.324219 109.785156 C 206.367188 110.035156 206.414062 110.273438 206.460938 110.523438 C 206.929688 112.980469 207.003906 113.628906 207.875 115.996094 C 207.859375 116.023438 208.339844 117.285156 208.324219 117.3125 L 208.527344 117.867188 L 208.777344 118.523438 C 208.835938 118.414062 209.238281 117.785156 209.300781 117.675781 C 214.316406 109.125 229.433594 105.917969 229.585938 105.886719 C 239.589844 103.980469 246.25 99.882812 250.671875 95.460938 C 253.242188 92.886719 255.058594 90.203125 256.332031 87.78125 " fill-opacity="1" fill-rule="nonzero"/></g></g></g></g><g fill="#fafafa" fill-opacity="1"><g transform="translate(129.047984, 222.378926)"><g><path d="M 21.375 -30.53125 L 28.84375 -30.53125 L 17.859375 0 L 10.328125 0 L -0.65625 -30.53125 L 6.8125 -30.53125 L 14.09375 -8.703125 Z M 21.375 -30.53125 "/></g></g></g><g fill="#fafafa" fill-opacity="1"><g transform="translate(157.23217, 222.378926)"><g><path d="M 21.625 -24.625 L 9.96875 -24.625 L 9.96875 -18.21875 L 19.9375 -18.21875 L 19.9375 -12.3125 L 9.96875 -12.3125 L 9.96875 -5.90625 L 21.625 -5.90625 L 21.625 0 L 3.25 0 L 3.25 -30.53125 L 21.625 -30.53125 Z M 21.625 -24.625 "/></g></g></g><g fill="#fafafa" fill-opacity="1"><g transform="translate(180.939452, 222.378926)"><g><path d="M 17.546875 -16.734375 L 33.28125 -16.734375 L 33.28125 -15.265625 C 33.28125 -13.085938 32.867188 -11.054688 32.046875 -9.171875 C 31.234375 -7.296875 30.109375 -5.632812 28.671875 -4.1875 C 27.234375 -2.75 25.570312 -1.625 23.6875 -0.8125 C 21.800781 0 19.773438 0.40625 17.609375 0.40625 C 15.429688 0.40625 13.394531 0 11.5 -0.8125 C 9.601562 -1.625 7.941406 -2.75 6.515625 -4.1875 C 5.085938 -5.632812 3.96875 -7.296875 3.15625 -9.171875 C 2.34375 -11.054688 1.9375 -13.085938 1.9375 -15.265625 C 1.9375 -17.429688 2.34375 -19.457031 3.15625 -21.34375 C 3.96875 -23.226562 5.085938 -24.890625 6.515625 -26.328125 C 7.941406 -27.773438 9.601562 -28.90625 11.5 -29.71875 C 13.394531 -30.53125 15.429688 -30.9375 17.609375 -30.9375 C 20.617188 -30.9375 23.351562 -30.160156 25.8125 -28.609375 C 28.28125 -27.066406 30.175781 -25.046875 31.5 -22.546875 L 25.6875 -19.53125 C 24.945312 -20.988281 23.863281 -22.160156 22.4375 -23.046875 C 21.007812 -23.929688 19.398438 -24.375 17.609375 -24.375 C 15.910156 -24.375 14.363281 -23.972656 12.96875 -23.171875 C 11.582031 -22.378906 10.488281 -21.296875 9.6875 -19.921875 C 8.894531 -18.546875 8.5 -16.992188 8.5 -15.265625 C 8.5 -13.535156 8.894531 -11.984375 9.6875 -10.609375 C 10.488281 -9.234375 11.582031 -8.144531 12.96875 -7.34375 C 14.363281 -6.550781 15.910156 -6.15625 17.609375 -6.15625 C 19.503906 -6.15625 21.1875 -6.644531 22.65625 -7.625 C 24.132812 -8.613281 25.234375 -9.90625 25.953125 -11.5 L 17.546875 -11.5 Z M 17.546875 -16.734375 "/></g></g></g><g fill="#fafafa" fill-opacity="1"><g transform="translate(216.144257, 222.378926)"><g><path d="M 21.671875 0 L 19.796875 -5.75 L 8.390625 -5.75 L 6.515625 0 L -0.65625 0 L 10.328125 -30.53125 L 17.859375 -30.53125 L 28.84375 0 Z M 10.171875 -11.34375 L 18.015625 -11.34375 L 14.09375 -23.453125 Z M 10.171875 -11.34375 "/></g></g></g><g fill="#fafafa" fill-opacity="1"><g transform="translate(123.024547, 278.628923)"><g><path d="M 15.96875 -30.53125 C 17.707031 -30.53125 19.257812 -30.113281 20.625 -29.28125 C 22 -28.445312 23.082031 -27.332031 23.875 -25.9375 C 24.675781 -24.550781 25.078125 -23.007812 25.078125 -21.3125 C 25.078125 -19.625 24.675781 -18.097656 23.875 -16.734375 C 23.082031 -15.378906 22 -14.3125 20.625 -13.53125 C 19.257812 -12.75 17.707031 -12.359375 15.96875 -12.359375 L 9.71875 -12.359375 L 9.71875 0 L 3 0 L 3 -30.53125 Z M 14.90625 -17.90625 C 15.988281 -17.90625 16.882812 -18.207031 17.59375 -18.8125 C 18.3125 -19.425781 18.671875 -20.242188 18.671875 -21.265625 C 18.671875 -22.253906 18.3125 -23.0625 17.59375 -23.6875 C 16.882812 -24.3125 15.988281 -24.625 14.90625 -24.625 L 9.71875 -24.625 L 9.71875 -17.90625 Z M 14.90625 -17.90625 "/></g></g></g><g fill="#fafafa" fill-opacity="1"><g transform="translate(148.308915, 278.628923)"><g><path d="M 21.671875 0 L 19.796875 -5.75 L 8.390625 -5.75 L 6.515625 0 L -0.65625 0 L 10.328125 -30.53125 L 17.859375 -30.53125 L 28.84375 0 Z M 10.171875 -11.34375 L 18.015625 -11.34375 L 14.09375 -23.453125 Z M 10.171875 -11.34375 "/></g></g></g><g fill="#fafafa" fill-opacity="1"><g transform="translate(176.493102, 278.628923)"><g><path d="M 3 0 L 3 -30.53125 L 13.078125 -30.53125 C 15.179688 -30.53125 17.15625 -30.128906 19 -29.328125 C 20.851562 -28.535156 22.472656 -27.441406 23.859375 -26.046875 C 25.253906 -24.660156 26.347656 -23.039062 27.140625 -21.1875 C 27.941406 -19.34375 28.34375 -17.367188 28.34375 -15.265625 C 28.34375 -13.160156 27.941406 -11.179688 27.140625 -9.328125 C 26.347656 -7.484375 25.253906 -5.863281 23.859375 -4.46875 C 22.472656 -3.082031 20.851562 -1.988281 19 -1.1875 C 17.15625 -0.394531 15.179688 0 13.078125 0 Z M 9.71875 -5.953125 L 13.03125 -5.953125 C 14.65625 -5.953125 16.109375 -6.359375 17.390625 -7.171875 C 18.679688 -7.984375 19.707031 -9.09375 20.46875 -10.5 C 21.238281 -11.914062 21.625 -13.503906 21.625 -15.265625 C 21.625 -17.023438 21.238281 -18.609375 20.46875 -20.015625 C 19.707031 -21.421875 18.679688 -22.53125 17.390625 -23.34375 C 16.109375 -24.164062 14.65625 -24.578125 13.03125 -24.578125 L 9.71875 -24.578125 Z M 9.71875 -5.953125 "/></g></g></g><g fill="#fafafa" fill-opacity="1"><g transform="translate(206.712255, 278.628923)"><g><path d="M 21.625 -24.625 L 9.96875 -24.625 L 9.96875 -18.21875 L 19.9375 -18.21875 L 19.9375 -12.3125 L 9.96875 -12.3125 L 9.96875 -5.90625 L 21.625 -5.90625 L 21.625 0 L 3.25 0 L 3.25 -30.53125 L 21.625 -30.53125 Z M 21.625 -24.625 "/></g></g></g><g fill="#fafafa" fill-opacity="1"><g transform="translate(230.419536, 278.628923)"><g><path d="M 9.71875 -5.953125 L 19.84375 -5.953125 L 19.84375 0 L 3 0 L 3 -30.53125 L 9.71875 -30.53125 Z M 9.71875 -5.953125 "/></g></g></g></svg>